<svg width="146" height="58" viewBox="0 0 146 58" fill="none" xmlns="http://www.w3.org/2000/svg">
<path fill-rule="evenodd" clip-rule="evenodd" d="M21.1743 43.6743C19.2913 44.5259 17.201 45 15 45C6.71609 45 0 38.2842 0 30C0 21.7158 6.71609 15 15 15C23.2839 15 30 21.7158 30 30V52.5L21.1743 43.6743ZM23.1818 30C23.1818 34.5187 19.5188 38.1818 15 38.1818C10.4812 38.1818 6.81818 34.5187 6.81818 30C6.81818 25.4813 10.4812 21.8182 15 21.8182C19.5188 21.8182 23.1818 25.4813 23.1818 30Z" fill="#FDC501"/>
<path d="M21.0215 43.7421L24.7725 47.2725L26.9222 39.1035C25.3889 41.1085 23.3614 42.7153 21.0215 43.7421Z" fill="#E8B504"/>
<path d="M48.6465 22.6719C50.2969 22.6719 51.7324 22.9795 52.9531 23.5947C54.1738 24.2002 55.1064 25.04 55.751 26.1143C56.4053 27.1885 56.7324 28.4141 56.7324 29.791C56.7324 31.1582 56.4102 32.3545 55.7656 33.3799C55.1211 34.4053 54.1885 35.1963 52.9678 35.7529C51.7471 36.3096 50.3066 36.5879 48.6465 36.5879H44.8672V44H40.2676V22.6719H48.6465ZM48.6465 32.8672C49.8086 32.8672 50.6729 32.5938 51.2393 32.0469C51.8057 31.5 52.0889 30.7578 52.0889 29.8203C52.0889 29.1953 51.9668 28.624 51.7227 28.1064C51.4785 27.5889 51.0977 27.1738 50.5801 26.8613C50.0625 26.5488 49.418 26.3926 48.6465 26.3926H44.8672V32.8672H48.6465ZM61.8594 21.7783C62.6016 21.7783 63.1973 21.9932 63.6465 22.4229C64.1055 22.8428 64.335 23.3848 64.335 24.0488C64.335 24.7129 64.1055 25.2598 63.6465 25.6895C63.1973 26.1094 62.6016 26.3193 61.8594 26.3193C61.127 26.3193 60.5312 26.1094 60.0723 25.6895C59.623 25.2598 59.3984 24.7129 59.3984 24.0488C59.3984 23.3848 59.623 22.8428 60.0723 22.4229C60.5312 21.9932 61.127 21.7783 61.8594 21.7783ZM59.6621 44V28.1504H64.1006V44H59.6621ZM80.7852 38.4482C80.7852 39.5713 80.4922 40.5771 79.9062 41.4658C79.3203 42.3545 78.5244 43.0479 77.5186 43.5459C76.5225 44.0439 75.4141 44.293 74.1934 44.293C72.6016 44.293 71.2539 43.9463 70.1504 43.2529C69.0469 42.5596 68.2168 41.6074 67.6602 40.3965C67.1133 39.1855 66.8398 37.8086 66.8398 36.2656V35.8848C66.8398 34.3418 67.1133 32.9648 67.6602 31.7539C68.2168 30.543 69.042 29.5908 70.1357 28.8975C71.2393 28.2041 72.582 27.8574 74.1641 27.8574C75.4629 27.8574 76.6104 28.1113 77.6064 28.6191C78.6123 29.1172 79.3936 29.8398 79.9502 30.7871C80.5068 31.7246 80.7852 32.833 80.7852 34.1123H76.6396C76.6299 33.3311 76.4004 32.6865 75.9512 32.1787C75.502 31.6709 74.877 31.417 74.0762 31.417C73.002 31.417 72.2646 31.8223 71.8643 32.6328C71.4639 33.4336 71.2637 34.5176 71.2637 35.8848V36.2656C71.2637 37.6621 71.459 38.7559 71.8496 39.5469C72.25 40.3379 73.002 40.7334 74.1055 40.7334C74.8672 40.7334 75.4775 40.5283 75.9365 40.1182C76.3955 39.708 76.6299 39.1514 76.6396 38.4482H80.7852ZM89.0469 37.7598L87.5674 39.2393V44H83.1436V21.4854H87.5674V33.8047L88.2998 32.8525L92.2695 28.1504H97.5723L91.8887 34.7275L98.0264 44H92.958L89.0469 37.7598ZM113.026 28.1504V44H108.881L108.764 42.3447C108.266 42.9697 107.655 43.4531 106.933 43.7949C106.21 44.127 105.385 44.293 104.457 44.293C102.807 44.293 101.513 43.8145 100.575 42.8574C99.6475 41.9004 99.1836 40.416 99.1836 38.4043V28.1504H103.593V38.4336C103.593 39.2148 103.783 39.791 104.164 40.1621C104.555 40.5332 105.092 40.7188 105.775 40.7188C107.133 40.7188 108.075 40.2451 108.603 39.2979V28.1504H113.026ZM124.32 27.8574C125.639 27.8574 126.762 28.1895 127.689 28.8535C128.617 29.5176 129.315 30.4551 129.784 31.666C130.263 32.8672 130.502 34.2783 130.502 35.8994V36.207C130.502 37.7598 130.263 39.1514 129.784 40.3818C129.306 41.6025 128.603 42.5596 127.675 43.2529C126.757 43.9463 125.648 44.293 124.35 44.293C122.807 44.293 121.542 43.7363 120.556 42.623V50.0938H116.132V28.1504H120.233L120.395 29.6738C121.391 28.4629 122.699 27.8574 124.32 27.8574ZM126.093 35.8994C126.093 34.5322 125.858 33.4482 125.39 32.6475C124.921 31.8369 124.184 31.4316 123.178 31.4316C121.898 31.4316 121.024 31.9199 120.556 32.8965V39.21C121.044 40.2256 121.928 40.7334 123.207 40.7334C124.213 40.7334 124.945 40.3184 125.404 39.4883C125.863 38.6582 126.093 37.5645 126.093 36.207V35.8994Z" fill="#3E4958"/>
<path d="M138.321 36.7578C139.103 36.7578 139.798 36.9219 140.407 37.25C141.017 37.5781 141.485 38.0312 141.813 38.6094C142.142 39.1719 142.306 39.8047 142.306 40.5078C142.306 41.2109 142.142 41.8516 141.813 42.4297C141.485 42.9922 141.017 43.4375 140.407 43.7656C139.798 44.0938 139.103 44.2578 138.321 44.2578C137.54 44.2578 136.845 44.0938 136.235 43.7656C135.642 43.4375 135.181 42.9922 134.853 42.4297C134.524 41.8516 134.36 41.2109 134.36 40.5078C134.36 39.8047 134.524 39.1719 134.853 38.6094C135.181 38.0312 135.642 37.5781 136.235 37.25C136.845 36.9219 137.54 36.7578 138.321 36.7578Z" fill="#FDC501"/>
</svg>
